<?xml version="1.0" standalone="no"?>
<!DOCTYPE svg PUBLIC "-//W3C//DTD SVG 20010904//EN"
 "http://www.w3.org/TR/2001/REC-SVG-20010904/DTD/svg10.dtd">
<svg version="1.0" xmlns="http://www.w3.org/2000/svg"
 width="627.000000pt" height="593.000000pt" viewBox="0 0 627.000000 593.000000"
 preserveAspectRatio="xMidYMid meet">

<g transform="translate(0.000000,593.000000) scale(0.100000,-0.100000)"
fill="#000000" stroke="none">
<path d="M2672 5700 c-230 -60 -433 -267 -488 -496 -22 -89 -22 -247 0 -338
29 -122 70 -190 180 -301 111 -112 115 -120 136 -287 11 -83 9 -162 -7 -240
l-5 -28 170 0 170 0 11 50 c28 132 5 297 -60 430 -35 70 -58 101 -135 177 -90
88 -94 94 -109 160 -9 37 -19 116 -22 174 -9 169 29 304 121 433 77 108 204
207 309 242 71 23 77 28 42 35 -66 14 -239 8 -313 -11z"/>
<path d="M3735 5366 c-139 -32 -241 -91 -345 -196 -148 -152 -213 -345 -189
-562 21 -183 110 -338 258 -450 28 -21 36 -36 46 -85 l12 -58 172 -3 172 -2
-6 22 c-35 118 -128 255 -234 342 -45 36 -69 126 -77 281 -7 138 10 229 65
340 81 163 211 281 374 340 39 14 55 25 47 30 -24 15 -232 15 -295 1z"/>
<path d="M1160 3637 c0 -20 -11 -29 -67 -52 -189 -80 -361 -220 -473 -385
-111 -164 -160 -318 -167 -530 -11 -324 83 -557 314 -781 263 -254 607 -345
961 -253 l103 26 87 -84 c106 -102 191 -175 299 -256 l82 -62 897 0 897 0 74
56 c288 217 621 562 798 829 122 183 210 373 255 550 39 150 45 268 32 608 -6
172 -15 322 -18 335 l-6 22 -2034 0 -2034 0 0 -23z m-24 -599 c0 -139 4 -204
17 -271 48 -239 169 -492 349 -731 32 -43 56 -81 54 -84 -12 -11 -194 -2 -251
13 -229 60 -421 246 -489 475 -26 86 -31 221 -12 320 19 105 85 243 153 319
44 50 155 141 173 141 4 0 7 -82 6 -182z"/>
<path d="M453 873 c14 -83 133 -209 304 -320 182 -119 475 -237 721 -290 l127
-28 1590 0 1590 0 110 23 c261 56 564 179 759 309 163 109 286 247 286 321 l0
22 -2746 0 -2747 0 6 -37z"/>
</g>
</svg>
