<?xml version="1.0" standalone="no"?>
<!DOCTYPE svg PUBLIC "-//W3C//DTD SVG 20010904//EN"
 "http://www.w3.org/TR/2001/REC-SVG-20010904/DTD/svg10.dtd">
<svg version="1.0" xmlns="http://www.w3.org/2000/svg"
 width="817.000000pt" height="262.000000pt" viewBox="0 0 817.000000 262.000000"
 preserveAspectRatio="xMidYMid meet">

<g transform="translate(0.000000,262.000000) scale(0.100000,-0.100000)"
fill="#000000" stroke="none">
<path d="M6814 2379 c-41 -12 -96 -65 -125 -120 -19 -37 -23 -59 -23 -139 0
-90 2 -98 33 -147 18 -29 36 -53 41 -53 12 0 30 -83 30 -138 l0 -50 41 -4 c57
-5 72 12 66 71 -8 77 -23 118 -63 173 -39 52 -39 53 -39 148 0 113 16 155 81
216 24 22 44 44 44 47 0 9 -48 7 -86 -4z"/>
<path d="M7115 2234 c-39 -20 -81 -68 -105 -121 -15 -31 -20 -63 -20 -125 0
-88 18 -142 59 -185 12 -12 25 -33 30 -47 8 -18 18 -25 50 -28 22 -2 45 -2 50
0 22 7 -8 79 -56 132 -24 26 -30 66 -24 170 4 84 50 158 127 207 30 19 -74 16
-111 -3z"/>
<path d="M433 2205 c0 -8 10 -15 21 -16 12 0 35 -8 51 -18 l30 -18 3 -281 c2
-278 2 -281 -20 -301 -12 -12 -34 -21 -49 -21 -15 0 -29 -7 -33 -15 -5 -13 35
-15 323 -15 l329 0 7 106 c4 58 5 108 1 111 -11 12 -38 -8 -49 -37 -6 -17 -15
-30 -19 -30 -4 0 -8 -6 -8 -12 0 -7 -14 -29 -31 -48 l-31 -35 -102 -3 c-86 -3
-106 -1 -119 13 -15 14 -17 49 -17 295 l0 279 30 16 c16 8 41 15 55 15 17 0
25 5 23 13 -4 9 -55 13 -200 15 -169 2 -195 0 -195 -13z"/>
<path d="M1320 2021 c-8 -5 -32 -11 -52 -15 -21 -4 -38 -11 -38 -16 0 -6 -5
-10 -11 -10 -21 0 -49 -43 -49 -76 0 -39 29 -64 75 -64 76 0 106 34 87 96 -13
44 1 64 47 64 44 0 71 -39 71 -105 0 -30 -5 -57 -12 -62 -7 -5 -40 -18 -73
-28 -185 -56 -214 -79 -214 -170 0 -68 13 -91 68 -118 37 -19 116 -23 126 -7
3 6 15 10 25 10 10 0 32 11 48 25 29 24 29 24 47 5 43 -47 122 -63 192 -38 40
14 44 38 7 38 -48 0 -53 20 -54 205 0 175 -3 188 -45 231 -32 33 -205 58 -245
35z m130 -320 c0 -83 -2 -90 -25 -105 -79 -52 -148 29 -98 115 14 24 90 75
116 78 4 1 7 -39 7 -88z"/>
<path d="M6335 1570 c-10 -11 -22 -20 -27 -20 -10 0 -21 -9 -79 -67 -109 -106
-142 -338 -69 -487 77 -159 204 -231 349 -198 l44 11 70 -75 69 -74 292 0 293
0 54 58 c99 105 180 216 223 307 16 33 32 68 37 77 26 50 33 115 33 293 l1
190 -636 3 c-626 2 -636 2 -654 -18z m-2 -203 c-6 -40 12 -161 34 -231 9 -28
34 -84 55 -124 21 -40 38 -78 38 -84 0 -16 -78 -1 -118 24 -19 11 -49 44 -66
72 -76 120 -67 260 22 358 31 33 42 28 35 -15z"/>
<path d="M2020 1123 c-26 -5 -82 -43 -114 -77 -27 -30 -49 -84 -55 -136 l-6
-45 -52 -3 c-45 -3 -53 -6 -53 -22 0 -20 30 -33 66 -30 45 5 44 8 44 -183 0
-199 -7 -227 -56 -227 -15 0 -24 -6 -24 -15 0 -13 26 -15 170 -15 137 0 170 3
170 14 0 8 -15 16 -36 19 -64 11 -64 10 -64 218 l0 188 63 3 c56 3 62 5 65 26
3 21 0 22 -62 22 l-66 0 0 89 c0 75 3 92 21 112 13 16 22 20 25 12 16 -36 67
-93 90 -99 61 -15 114 59 80 111 -9 14 -28 30 -42 35 -25 10 -117 11 -164 3z"/>
<path d="M4453 1123 c-7 -2 -42 -45 -79 -94 -74 -102 -80 -135 -17 -96 21 13
65 39 98 57 33 18 70 42 83 53 27 25 29 63 3 77 -20 10 -66 12 -88 3z"/>
<path d="M735 1076 c-119 -26 -203 -89 -254 -191 -39 -78 -50 -163 -32 -256
27 -135 109 -220 256 -264 57 -17 171 -20 180 -5 3 6 15 10 25 10 50 0 136 65
181 134 28 45 28 46 7 57 -22 12 -25 10 -53 -42 -18 -33 -89 -97 -121 -109
-41 -16 -117 -11 -161 9 -40 20 -93 78 -93 103 0 8 -6 20 -12 26 -9 9 -13 58
-13 170 0 139 2 162 21 202 27 56 50 82 91 104 64 33 150 14 204 -46 29 -32
79 -122 79 -143 0 -15 27 -28 41 -19 10 6 12 139 3 208 -7 50 -19 56 -57 31
-19 -12 -26 -12 -52 0 -77 34 -151 41 -240 21z"/>
<path d="M2825 998 c-2 -7 -6 -40 -7 -73 l-3 -60 -43 -3 c-38 -3 -43 -6 -40
-25 2 -17 10 -22 33 -24 17 0 36 -2 43 -2 9 -1 12 -44 12 -178 0 -150 3 -183
18 -212 9 -19 24 -38 32 -41 8 -4 25 -12 37 -18 27 -14 106 -16 131 -3 9 5 31
13 47 18 20 5 31 16 33 31 3 20 -1 22 -47 22 -42 0 -53 4 -70 26 -19 25 -21
40 -21 190 0 184 -8 167 83 164 44 -1 47 0 47 24 0 25 -2 26 -65 26 l-64 0 -3
73 -3 72 -73 3 c-52 2 -74 -1 -77 -10z"/>
<path d="M1350 871 c-8 -5 -32 -11 -52 -15 -21 -4 -38 -11 -38 -16 0 -6 -5
-10 -11 -10 -19 0 -48 -44 -49 -72 0 -40 35 -68 86 -68 69 0 98 42 74 106 -9
21 -7 29 7 40 26 20 66 17 92 -7 19 -18 22 -29 19 -87 -3 -63 -5 -67 -28 -70
-14 -2 -29 -8 -35 -12 -5 -5 -28 -11 -49 -16 -22 -4 -51 -13 -65 -20 -14 -8
-31 -14 -38 -14 -7 0 -28 -16 -48 -35 -32 -33 -35 -41 -35 -93 0 -51 3 -61 28
-83 15 -13 37 -30 49 -36 48 -27 150 -7 199 39 22 19 22 19 42 -2 46 -49 119
-63 192 -37 44 16 50 37 12 37 -56 0 -62 19 -62 206 0 174 -3 187 -45 230 -32
33 -205 58 -245 35z m130 -320 c0 -83 -2 -90 -25 -105 -33 -22 -64 -20 -92 6
-46 43 -19 121 55 161 26 14 50 26 55 26 4 1 7 -39 7 -88z"/>
<path d="M2354 861 c-97 -39 -146 -93 -165 -182 -26 -119 19 -235 109 -287
120 -68 266 -51 370 42 35 33 39 47 18 65 -10 9 -17 7 -27 -5 -30 -36 -88 -64
-133 -64 -101 0 -166 65 -166 165 l0 45 165 0 165 0 0 34 c0 63 -13 99 -50
136 -65 65 -195 88 -286 51z m137 -43 c16 -21 24 -51 27 -90 l4 -58 -81 0 -81
0 0 45 c0 110 81 174 131 103z"/>
<path d="M3347 864 c-89 -32 -147 -93 -168 -178 -22 -89 8 -215 63 -261 126
-104 297 -98 421 14 30 28 34 43 14 60 -11 8 -18 6 -33 -10 -50 -56 -146 -74
-214 -41 -46 23 -80 83 -80 145 l0 47 165 0 165 0 0 34 c0 63 -13 99 -50 136
-63 63 -190 88 -283 54z m134 -46 c16 -21 24 -51 27 -90 l4 -58 -81 0 -81 0 0
45 c0 110 81 174 131 103z"/>
<path d="M3885 870 c-16 -4 -56 -8 -87 -9 -44 -1 -58 -5 -58 -16 0 -8 9 -15
19 -15 11 0 29 -12 40 -27 20 -25 21 -36 19 -207 l-3 -181 -32 -10 c-18 -5
-33 -15 -33 -22 0 -10 37 -13 165 -13 140 0 165 2 165 15 0 8 -9 15 -20 15
-10 0 -31 5 -45 12 l-25 11 0 163 0 163 33 25 c19 15 37 26 40 26 4 0 7 -15 7
-34 0 -66 89 -101 141 -55 19 16 24 30 24 69 0 41 -4 52 -30 74 -48 41 -120
29 -185 -31 l-25 -23 -5 37 c-5 35 -7 38 -40 40 -19 0 -48 -2 -65 -7z"/>
<path d="M4405 870 c-16 -4 -56 -8 -87 -9 -44 -1 -58 -5 -58 -16 0 -8 9 -15
19 -15 11 0 33 -11 48 -24 l28 -24 3 -157 c4 -179 -4 -213 -49 -222 -16 -3
-29 -12 -29 -19 0 -11 30 -14 155 -14 117 0 155 3 155 13 0 6 -15 19 -33 27
l-32 15 -5 225 c-3 124 -7 226 -8 228 -4 5 -78 -1 -107 -8z"/>
<path d="M4830 871 c-8 -5 -32 -11 -52 -15 -21 -4 -38 -11 -38 -16 0 -6 -5
-10 -11 -10 -21 0 -49 -43 -49 -76 0 -39 29 -64 75 -64 76 0 106 34 87 96 -13
44 1 64 47 64 43 0 71 -40 71 -101 0 -58 -7 -79 -27 -79 -9 0 -38 -7 -67 -17
-115 -37 -137 -47 -174 -78 -30 -25 -32 -31 -32 -88 1 -70 14 -92 69 -120 37
-19 116 -23 126 -7 3 5 15 10 25 10 10 0 32 11 49 25 l30 26 20 -22 c44 -48
118 -62 188 -37 38 14 44 38 10 38 -51 0 -57 22 -57 206 0 174 -3 187 -45 230
-32 33 -205 58 -245 35z m130 -320 c0 -83 -2 -90 -25 -105 -79 -52 -148 29
-98 115 14 24 90 75 116 78 4 1 7 -39 7 -88z"/>
<path d="M6127 514 c-13 -14 19 -67 67 -111 45 -41 119 -85 215 -127 16 -7
209 -11 580 -11 l556 0 90 44 c99 49 215 151 215 190 l0 21 -858 0 c-472 0
-861 -3 -865 -6z"/>
</g>
</svg>
